<svg id="Group_54" data-name="Group 54" xmlns="http://www.w3.org/2000/svg" width="37.186" height="37.21" viewBox="0 0 37.604 38">
  <path id="Path_140" data-name="Path 140" d="M-2872.3-1116.443a18.6,18.6,0,0,1,18.963-18.583,18.685,18.685,0,0,1,18.221,18.354,18.678,18.678,0,0,1-19.081,18.847A18.6,18.6,0,0,1-2872.3-1116.443Zm18.591-17.25a17.272,17.272,0,0,0-17.279,17.526,17.294,17.294,0,0,0,17.271,17.013,17.3,17.3,0,0,0,17.28-17.5A17.274,17.274,0,0,0-2853.712-1133.693Z" transform="translate(2872.303 1135.03)" fill="#fafafa"/>
  <path id="Path_141" data-name="Path 141" d="M-2722.447-867.012h-5.873a1.529,1.529,0,0,1-1.658-1.178,6,6,0,0,1,3.511-7.6,6.609,6.609,0,0,1,2.044-.389c1.34-.059,2.685-.02,4.027-.017a6,6,0,0,1,5.778,4.988,6.332,6.332,0,0,1-.26,3.068,1.525,1.525,0,0,1-1.584,1.125Z" transform="translate(2741.006 895.7)" fill="#fafafa"/>
  <path id="Path_142" data-name="Path 142" d="M-2675.121-1017.846a4.056,4.056,0,0,1,1.667-3,3.475,3.475,0,0,1,5.2,1.195,4.735,4.735,0,0,1-.608,5.539,3.469,3.469,0,0,1-5.125-.1A5.059,5.059,0,0,1-2675.121-1017.846Z" transform="translate(2689.97 1030.105)" fill="#fafafa"/>
  <path id="Path_143" data-name="Path 143" d="M-2523.492-867.991a8.311,8.311,0,0,0-2.327-8.026,3.77,3.77,0,0,1,1.664.164,5.273,5.273,0,0,1,3.806,5.671,6.231,6.231,0,0,1-.369,1.4,1.163,1.163,0,0,1-1.165.785C-2522.409-867.982-2522.935-867.991-2523.492-867.991Z" transform="translate(2551.912 895.555)" fill="#fafafa"/>
  <path id="Path_144" data-name="Path 144" d="M-2792.7-876a8.319,8.319,0,0,0-2.355,8.036c-.627,0-1.252.045-1.867-.015a1.136,1.136,0,0,1-.913-.753,5.314,5.314,0,0,1,1.458-6A5.269,5.269,0,0,1-2792.7-876Z" transform="translate(2803.802 895.505)" fill="#fafafa"/>
  <path id="Path_145" data-name="Path 145" d="M-2550.365-965.891a2.771,2.771,0,0,1,.9-2.118,2.148,2.148,0,0,1,3.191.23,2.987,2.987,0,0,1,.063,3.706,2.17,2.17,0,0,1-2.235.824,2.408,2.408,0,0,1-1.806-1.869A5.875,5.875,0,0,1-2550.365-965.891Z" transform="translate(2574.609 981.145)" fill="#fafafa"/>
  <path id="Path_146" data-name="Path 146" d="M-2759.219-965.855a2.8,2.8,0,0,1-.763,2.047,2.184,2.184,0,0,1-3.353-.158,2.978,2.978,0,0,1,.033-3.706,2.2,2.2,0,0,1,3.646.288A2.641,2.641,0,0,1-2759.219-965.855Z" transform="translate(2772.123 981.051)" fill="#fafafa"/>
</svg>
