<svg xmlns="http://www.w3.org/2000/svg" width="46.614" height="32.775" viewBox="0 0 46.614 32.775">
  <path id="Icon_awesome-youtube" data-name="Icon awesome-youtube" d="M46.69,9.628A5.857,5.857,0,0,0,42.568,5.48C38.933,4.5,24.357,4.5,24.357,4.5S9.78,4.5,6.145,5.48A5.857,5.857,0,0,0,2.024,9.628C1.05,13.287,1.05,20.921,1.05,20.921s0,7.634.974,11.293a5.77,5.77,0,0,0,4.121,4.082c3.635.98,18.212.98,18.212.98s14.576,0,18.212-.98a5.77,5.77,0,0,0,4.121-4.082c.974-3.659.974-11.293.974-11.293s0-7.634-.974-11.293Zm-27.1,18.223V13.99l12.183,6.931L19.589,27.852Z" transform="translate(-1.05 -4.5)" fill="#fafafa"/>
</svg>
