<svg xmlns="http://www.w3.org/2000/svg" width="39.604" height="31" viewBox="0 0 33.146 33.672">
  <path id="Icon_awesome-flag" data-name="Icon awesome-flag" d="M23.026,6.5C19.5,6.5,16.591,4.209,12.16,4.209A12.782,12.782,0,0,0,7.685,5,3.683,3.683,0,1,0,2.141,6.7V32.093a1.578,1.578,0,0,0,1.578,1.578H4.771A1.578,1.578,0,0,0,6.35,32.093V25.885a18.375,18.375,0,0,1,7.526-1.455c3.524,0,6.435,2.288,10.866,2.288A13.768,13.768,0,0,0,32.8,24.031a2.1,2.1,0,0,0,.91-1.733V6.31A2.1,2.1,0,0,0,30.717,4.4,19.147,19.147,0,0,1,23.026,6.5Z" transform="translate(-0.563)" fill="#fff"/>
</svg>
