<svg xmlns="http://www.w3.org/2000/svg" width="39.604" height="31.341" viewBox="0 0 39.604 36.21">
  <path id="Icon_awesome-instagram" data-name="Icon awesome-instagram" d="M18.608,11.3a9.54,9.54,0,1,0,9.54,9.54A9.525,9.525,0,0,0,18.608,11.3Zm0,15.742a6.2,6.2,0,1,1,6.2-6.2,6.214,6.214,0,0,1-6.2,6.2ZM30.763,10.912a2.225,2.225,0,1,1-2.225-2.225A2.22,2.22,0,0,1,30.763,10.912Zm6.319,2.258c-.141-2.981-.822-5.621-3.006-7.8s-4.816-2.856-7.8-3.006c-3.072-.174-12.28-.174-15.352,0-2.972.141-5.613.822-7.8,3S.275,10.182.125,13.162c-.174,3.072-.174,12.28,0,15.352.141,2.981.822,5.621,3.006,7.8s4.816,2.856,7.8,3.006c3.072.174,12.28.174,15.352,0,2.981-.141,5.621-.822,7.8-3.006s2.856-4.816,3.006-7.8c.174-3.072.174-12.272,0-15.344Zm-3.969,18.64a6.279,6.279,0,0,1-3.537,3.537c-2.449.971-8.261.747-10.968.747s-8.527.216-10.968-.747A6.279,6.279,0,0,1,4.1,31.811c-.971-2.449-.747-8.261-.747-10.968S3.139,12.315,4.1,9.874A6.279,6.279,0,0,1,7.64,6.337c2.449-.971,8.261-.747,10.968-.747s8.527-.216,10.968.747a6.279,6.279,0,0,1,3.537,3.537c.971,2.449.747,8.261.747,10.968S34.084,29.37,33.113,31.811Z" transform="translate(0.005 -2.238)" fill="#f1f1f1"/>
</svg>
