<svg xmlns="http://www.w3.org/2000/svg" width="134" height="134.308" viewBox="0 0 134 134.308">
  <g id="Group_58" data-name="Group 58" transform="translate(2 2)">
    <ellipse id="Ellipse_15" data-name="Ellipse 15" cx="65" cy="65.154" rx="65" ry="65.154" transform="translate(0 0)" fill="#fff" stroke="#000" stroke-miterlimit="10" stroke-width="1"/>
    <g id="Group_57" data-name="Group 57" transform="translate(13.834 7.22)">
      <path id="Path_148" data-name="Path 148" d="M-710.942,34.986c-.978-.894-1.03-2.791-1.252-4.264-3.365-21.866-6.117-43.816-10.225-65.549-3.143-16.744-15.35-25.357-32.578-25.031-15.193.3-26.879,8.094-30,21.7-3.534,15.463-5.908,31.156-8.49,46.788-1.317,7.937-1.956,15.97-2.987,23.944a4.606,4.606,0,0,1-1.33,2.694c-2.582,2.247-5.23,4.421-7.916,6.632A70.036,70.036,0,0,0-754.735,63.29,70.022,70.022,0,0,0-703.287,41.4C-705.895,39.311-708.49,37.221-710.942,34.986ZM-727.883-13.53c-.574,5.569-.822,9.338-1.4,13.083-1.9,12.5-10.746,19.933-22.21,25.176a8.35,8.35,0,0,1-6.1-.254c-13.015-6.137-21.466-15.342-22.105-29.5-.169-3.54-.352-7.079-.691-10.619-.209-2.114.561-3.467,2.517-4.663,13.6-8.311,27.661-9.29,42.4-2.779C-730.217-20.766-726.1-18.012-727.883-13.53Z" transform="translate(805.715 59.867)" fill="#ab0966"/>
    </g>
    <path id="Path_149" data-name="Path 149" d="M-702.662,42.32a70.022,70.022,0,0,1-51.449,21.89A70.036,70.036,0,0,1-805.09,42.816c2.687-2.211,5.334-4.385,7.916-6.632a4.605,4.605,0,0,0,1.33-2.694c1.03-7.973,1.669-16.007,2.987-23.944,2.582-15.632,4.956-31.325,8.49-46.788,3.117-13.6,14.8-21.395,30-21.7,17.228-.326,29.435,8.287,32.578,25.031,4.108,21.733,6.86,43.683,10.225,65.549.222,1.474.274,3.37,1.252,4.264C-707.865,38.141-705.27,40.231-702.662,42.32Z" transform="translate(819.469 66.97)" fill="none"/>
    <ellipse id="Ellipse_16" data-name="Ellipse 16" cx="65" cy="65.154" rx="65" ry="65.154" transform="translate(0 0)" fill="none" stroke="#7e1673" stroke-miterlimit="10" stroke-width="4"/>
  </g>
</svg>
